<svg width="512" height="512" viewBox="0 0 512 512" fill="none" xmlns="http://www.w3.org/2000/svg">
<g clip-path="url(#clip0_1_2)">
<path d="M121.6 337.9C124 335.5 127.3 334.1 130.8 334.1H448.2C454 334.1 456.9 341.1 452.8 345.2L390.1 407.9C387.7 410.3 384.4 411.7 380.9 411.7H63.5C57.7 411.7 54.8 404.7 58.9 400.6L121.6 337.9Z" fill="url(#paint0_linear_1_2)"/>
<path d="M121.6 103.8C124.1 101.4 127.4 100 130.8 100H448.2C454 100 456.9 107 452.8 111.1L390.1 173.8C387.7 176.2 384.4 177.6 380.9 177.6H63.5C57.7 177.6 54.8 170.6 58.9 166.5L121.6 103.8Z" fill="url(#paint1_linear_1_2)"/>
<path d="M390.1 220.1C387.7 217.7 384.4 216.3 380.9 216.3H63.5C57.7 216.3 54.8 223.3 58.9 227.4L121.6 290.1C124 292.5 127.3 293.9 130.8 293.9H448.2C454 293.9 456.9 286.9 452.8 282.8L390.1 220.1Z" fill="url(#paint2_linear_1_2)"/>
</g>
<g clip-path="url(#clip1_1_2)">
<path d="M351.142 338.129C351.89 335.727 352.919 334.325 354.01 334.325H452.973C454.782 334.325 455.686 341.332 454.407 345.436L434.858 408.196C434.11 410.599 433.081 412 431.99 412H333.027C331.218 412 330.314 404.993 331.592 400.889L351.142 338.129Z" fill="url(#paint3_linear_1_2)"/>
<path d="M351.142 103.804C351.921 101.401 352.95 100 354.01 100H452.973C454.782 100 455.686 107.007 454.407 111.111L434.858 173.871C434.11 176.273 433.081 177.675 431.99 177.675H333.027C331.218 177.675 330.314 170.668 331.592 166.564L351.142 103.804Z" fill="url(#paint4_linear_1_2)"/>
<path d="M434.858 220.216C434.11 217.813 433.081 216.412 431.99 216.412H333.027C331.218 216.412 330.314 223.419 331.592 227.523L351.142 290.283C351.89 292.685 352.919 294.087 354.01 294.087H452.973C454.782 294.087 455.686 287.08 454.407 282.976L434.858 220.216Z" fill="url(#paint5_linear_1_2)"/>
</g>
<g clip-path="url(#clip2_1_2)">
<path d="M289.142 338.129C289.89 335.727 290.919 334.325 292.01 334.325H390.973C392.782 334.325 393.686 341.332 392.407 345.436L372.858 408.196C372.11 410.599 371.081 412 369.99 412H271.027C269.218 412 268.314 404.993 269.592 400.889L289.142 338.129Z" fill="url(#paint6_linear_1_2)"/>
<path d="M289.142 103.804C289.921 101.401 290.95 100 292.01 100H390.973C392.782 100 393.686 107.007 392.407 111.111L372.858 173.871C372.11 176.273 371.081 177.675 369.99 177.675H271.027C269.218 177.675 268.314 170.668 269.592 166.564L289.142 103.804Z" fill="url(#paint7_linear_1_2)"/>
<path d="M372.858 220.216C372.11 217.813 371.081 216.412 369.99 216.412H271.027C269.218 216.412 268.314 223.419 269.592 227.523L289.142 290.283C289.89 292.685 290.919 294.087 292.01 294.087H390.973C392.782 294.087 393.686 287.08 392.407 282.976L372.858 220.216Z" fill="url(#paint8_linear_1_2)"/>
</g>
<g clip-path="url(#clip3_1_2)">
<path d="M227.142 338.129C227.89 335.727 228.919 334.325 230.01 334.325H328.973C330.782 334.325 331.686 341.332 330.407 345.436L310.858 408.196C310.11 410.599 309.081 412 307.99 412H209.027C207.218 412 206.314 404.993 207.592 400.889L227.142 338.129Z" fill="url(#paint9_linear_1_2)"/>
<path d="M227.142 103.804C227.921 101.401 228.95 100 230.01 100H328.973C330.782 100 331.686 107.007 330.407 111.111L310.858 173.871C310.11 176.273 309.081 177.675 307.99 177.675H209.027C207.218 177.675 206.314 170.668 207.592 166.564L227.142 103.804Z" fill="url(#paint10_linear_1_2)"/>
<path d="M310.858 220.216C310.11 217.813 309.081 216.412 307.99 216.412H209.027C207.218 216.412 206.314 223.419 207.592 227.523L227.142 290.283C227.89 292.685 228.919 294.087 230.01 294.087H328.973C330.782 294.087 331.686 287.08 330.407 282.976L310.858 220.216Z" fill="url(#paint11_linear_1_2)"/>
</g>
<g clip-path="url(#clip4_1_2)">
<path d="M165.142 338.129C165.89 335.727 166.919 334.325 168.01 334.325H266.973C268.782 334.325 269.686 341.332 268.407 345.436L248.858 408.196C248.11 410.599 247.081 412 245.99 412H147.027C145.218 412 144.314 404.993 145.592 400.889L165.142 338.129Z" fill="url(#paint12_linear_1_2)"/>
<path d="M165.142 103.804C165.921 101.401 166.95 100 168.01 100H266.973C268.782 100 269.686 107.007 268.407 111.111L248.858 173.871C248.11 176.273 247.081 177.675 245.99 177.675H147.027C145.218 177.675 144.314 170.668 145.592 166.564L165.142 103.804Z" fill="url(#paint13_linear_1_2)"/>
<path d="M248.858 220.216C248.11 217.813 247.081 216.412 245.99 216.412H147.027C145.218 216.412 144.314 223.419 145.592 227.523L165.142 290.283C165.89 292.685 166.919 294.087 168.01 294.087H266.973C268.782 294.087 269.686 287.08 268.407 282.976L248.858 220.216Z" fill="url(#paint14_linear_1_2)"/>
</g>
<g clip-path="url(#clip5_1_2)">
<path d="M84.2887 338.129C85.3026 335.727 86.6966 334.325 88.1751 334.325H222.254C224.704 334.325 225.929 341.332 224.197 345.436L197.711 408.196C196.697 410.599 195.303 412 193.825 412H59.7456C57.2955 412 56.0705 404.993 57.8024 400.889L84.2887 338.129Z" fill="url(#paint15_linear_1_2)"/>
<path d="M84.2887 103.804C85.3448 101.401 86.7388 100 88.1751 100H222.254C224.704 100 225.929 107.007 224.197 111.111L197.711 173.871C196.697 176.273 195.303 177.675 193.825 177.675H59.7456C57.2955 177.675 56.0705 170.668 57.8024 166.564L84.2887 103.804Z" fill="url(#paint16_linear_1_2)"/>
<path d="M197.711 220.216C196.697 217.813 195.303 216.412 193.825 216.412H59.7456C57.2955 216.412 56.0705 223.419 57.8024 227.523L84.2887 290.283C85.3026 292.685 86.6966 294.087 88.1751 294.087H222.254C224.704 294.087 225.929 287.08 224.197 282.976L197.711 220.216Z" fill="url(#paint17_linear_1_2)"/>
</g>
<defs>
<linearGradient id="paint0_linear_1_2" x1="417.879" y1="62.5447" x2="198.213" y2="483.294" gradientUnits="userSpaceOnUse">
<stop stop-color="#00FFA3"/>
<stop offset="1" stop-color="#DC1FFF"/>
</linearGradient>
<linearGradient id="paint1_linear_1_2" x1="321.829" y1="12.3986" x2="102.163" y2="433.147" gradientUnits="userSpaceOnUse">
<stop stop-color="#00FFA3"/>
<stop offset="1" stop-color="#DC1FFF"/>
</linearGradient>
<linearGradient id="paint2_linear_1_2" x1="369.548" y1="37.312" x2="149.882" y2="458.061" gradientUnits="userSpaceOnUse">
<stop stop-color="#00FFA3"/>
<stop offset="1" stop-color="#DC1FFF"/>
</linearGradient>
<linearGradient id="paint3_linear_1_2" x1="443.519" y1="62.5086" x2="207.7" y2="203.207" gradientUnits="userSpaceOnUse">
<stop stop-color="#00FFA3"/>
<stop offset="1" stop-color="#DC1FFF"/>
</linearGradient>
<linearGradient id="paint4_linear_1_2" x1="413.572" y1="12.3143" x2="177.752" y2="153.012" gradientUnits="userSpaceOnUse">
<stop stop-color="#00FFA3"/>
<stop offset="1" stop-color="#DC1FFF"/>
</linearGradient>
<linearGradient id="paint5_linear_1_2" x1="428.45" y1="37.2517" x2="192.63" y2="177.95" gradientUnits="userSpaceOnUse">
<stop stop-color="#00FFA3"/>
<stop offset="1" stop-color="#DC1FFF"/>
</linearGradient>
<linearGradient id="paint6_linear_1_2" x1="381.519" y1="62.5086" x2="145.7" y2="203.207" gradientUnits="userSpaceOnUse">
<stop stop-color="#00FFA3"/>
<stop offset="1" stop-color="#DC1FFF"/>
</linearGradient>
<linearGradient id="paint7_linear_1_2" x1="351.572" y1="12.3143" x2="115.752" y2="153.012" gradientUnits="userSpaceOnUse">
<stop stop-color="#00FFA3"/>
<stop offset="1" stop-color="#DC1FFF"/>
</linearGradient>
<linearGradient id="paint8_linear_1_2" x1="366.45" y1="37.2517" x2="130.63" y2="177.95" gradientUnits="userSpaceOnUse">
<stop stop-color="#00FFA3"/>
<stop offset="1" stop-color="#DC1FFF"/>
</linearGradient>
<linearGradient id="paint9_linear_1_2" x1="319.519" y1="62.5086" x2="83.6996" y2="203.207" gradientUnits="userSpaceOnUse">
<stop stop-color="#00FFA3"/>
<stop offset="1" stop-color="#DC1FFF"/>
</linearGradient>
<linearGradient id="paint10_linear_1_2" x1="289.572" y1="12.3143" x2="53.7519" y2="153.012" gradientUnits="userSpaceOnUse">
<stop stop-color="#00FFA3"/>
<stop offset="1" stop-color="#DC1FFF"/>
</linearGradient>
<linearGradient id="paint11_linear_1_2" x1="304.45" y1="37.2517" x2="68.6304" y2="177.95" gradientUnits="userSpaceOnUse">
<stop stop-color="#00FFA3"/>
<stop offset="1" stop-color="#DC1FFF"/>
</linearGradient>
<linearGradient id="paint12_linear_1_2" x1="257.519" y1="62.5086" x2="21.6996" y2="203.207" gradientUnits="userSpaceOnUse">
<stop stop-color="#00FFA3"/>
<stop offset="1" stop-color="#DC1FFF"/>
</linearGradient>
<linearGradient id="paint13_linear_1_2" x1="227.572" y1="12.3143" x2="-8.24812" y2="153.012" gradientUnits="userSpaceOnUse">
<stop stop-color="#00FFA3"/>
<stop offset="1" stop-color="#DC1FFF"/>
</linearGradient>
<linearGradient id="paint14_linear_1_2" x1="242.45" y1="37.2517" x2="6.63038" y2="177.95" gradientUnits="userSpaceOnUse">
<stop stop-color="#00FFA3"/>
<stop offset="1" stop-color="#DC1FFF"/>
</linearGradient>
<linearGradient id="paint15_linear_1_2" x1="209.446" y1="62.5086" x2="-52.5753" y2="274.311" gradientUnits="userSpaceOnUse">
<stop stop-color="#00FFA3"/>
<stop offset="1" stop-color="#DC1FFF"/>
</linearGradient>
<linearGradient id="paint16_linear_1_2" x1="168.871" y1="12.3143" x2="-93.1495" y2="224.117" gradientUnits="userSpaceOnUse">
<stop stop-color="#00FFA3"/>
<stop offset="1" stop-color="#DC1FFF"/>
</linearGradient>
<linearGradient id="paint17_linear_1_2" x1="189.029" y1="37.2517" x2="-72.9916" y2="249.054" gradientUnits="userSpaceOnUse">
<stop stop-color="#00FFA3"/>
<stop offset="1" stop-color="#DC1FFF"/>
</linearGradient>
<clipPath id="clip0_1_2">
<rect width="397.7" height="311.7" fill="white" transform="translate(57 100)"/>
</clipPath>
<clipPath id="clip1_1_2">
<rect width="124" height="312" fill="white" transform="translate(331 100)"/>
</clipPath>
<clipPath id="clip2_1_2">
<rect width="124" height="312" fill="white" transform="translate(269 100)"/>
</clipPath>
<clipPath id="clip3_1_2">
<rect width="124" height="312" fill="white" transform="translate(207 100)"/>
</clipPath>
<clipPath id="clip4_1_2">
<rect width="124" height="312" fill="white" transform="translate(145 100)"/>
</clipPath>
<clipPath id="clip5_1_2">
<rect width="168" height="312" fill="white" transform="translate(57 100)"/>
</clipPath>
</defs>
</svg>
